<?xml version="1.0" encoding="iso-8859-1"?>
<!-- Uploaded to: SVG Repo, www.svgrepo.com, Generator: SVG Repo Mixer Tools -->
<!DOCTYPE svg PUBLIC "-//W3C//DTD SVG 1.1//EN" "http://www.w3.org/Graphics/SVG/1.1/DTD/svg11.dtd">
<svg fill="#000000" height="800px" width="800px" version="1.1" id="Capa_1" xmlns="http://www.w3.org/2000/svg" xmlns:xlink="http://www.w3.org/1999/xlink" 
	 viewBox="0 0 433.027 433.027" xml:space="preserve">
<g>
	<path d="M144.596,235.31H120.38c-6.203,0-11.25,5.047-11.25,11.25v5.198c0,6.203,5.047,11.25,11.25,11.25h24.216
		c6.203,0,11.25-5.047,11.25-11.25v-5.198C155.846,240.357,150.799,235.31,144.596,235.31z M147.846,251.757
		c0,1.792-1.458,3.25-3.25,3.25H120.38c-1.792,0-3.25-1.458-3.25-3.25v-5.198c0-1.792,1.458-3.25,3.25-3.25h24.216
		c1.792,0,3.25,1.458,3.25,3.25V251.757z"/>
	<path d="M82.027,220.158c-7.168,0-13,5.832-13,13c0,7.169,5.832,13,13,13c7.168,0,13-5.831,13-13
		C95.027,225.99,89.195,220.158,82.027,220.158z M82.027,238.158c-2.757,0-5-2.243-5-5c0-2.757,2.243-5,5-5c2.757,0,5,2.243,5,5
		C87.027,235.915,84.784,238.158,82.027,238.158z"/>
	<path d="M82.027,252.158c-7.168,0-13,5.832-13,13c0,7.168,5.832,13,13,13c7.168,0,13-5.832,13-13
		C95.027,257.99,89.195,252.158,82.027,252.158z M82.027,270.158c-2.757,0-5-2.243-5-5s2.243-5,5-5c2.757,0,5,2.243,5,5
		S84.784,270.158,82.027,270.158z"/>
	<path d="M410.963,245.436c-1.728-11.77-11.504-21.153-23.669-22.055l-161.431-11.966c-1.891-4.527-6.363-7.718-11.568-7.718h-27.47
		c-3.35-6.901-7.419-13.388-12.182-19.367h5.73c2.209,0,4-1.791,4-4s-1.791-4-4-4h-4.331V91.228c0-6.368-5.181-11.549-11.549-11.549
		h-22.578c-6.368,0-11.549,5.181-11.549,11.549v60.619c-11.853-4.557-24.362-6.869-37.273-6.869c-2.209,0-4,1.791-4,4v7.185
		C39.611,158.265,0,199.173,0,249.164c0,49.982,39.611,90.883,89.093,92.986v7.199c0,2.209,1.791,4,4,4
		c39.883,0,76.386-22.971,93.743-58.729h27.459c5.202,0,9.671-3.187,11.564-7.709l161.435-11.966
		c11.941-0.885,21.574-9.945,23.558-21.41c8.082,1.676,14.175,8.849,14.175,17.421v3.169c0,2.209,1.791,4,4,4c2.209,0,4-1.791,4-4
		v-3.169C433.027,258,423.424,247.249,410.963,245.436z M235.027,220.117v58.091l-8.2,0.608V219.51L235.027,220.117z M86.596,286.62
		c-14.623,0-26.521-11.897-26.521-26.521v-21.88c0-14.624,11.898-26.521,26.521-26.521h69.26
		c6.76,11.284,10.328,24.188,10.328,37.466c0,13.255-3.567,26.156-10.324,37.457H86.596z M160.072,184.33v19.367h-13.735V184.33
		H160.072z M168.072,188.921c3.713,4.611,6.971,9.556,9.773,14.776h-9.773V188.921z M138.366,176.33v-57.79h29.676v57.79H138.366z
		 M168.042,110.54h-29.676v-5h29.676V110.54z M141.915,87.679h22.578c1.957,0,3.549,1.592,3.549,3.549v6.313h-29.676v-6.313
		C138.366,89.271,139.958,87.679,141.915,87.679z M130.366,160.495v15.835h-4.331c-2.209,0-4,1.791-4,4s1.791,4,4,4h12.302v19.367
		H97.093v-50.64C108.642,153.523,119.8,156.035,130.366,160.495z M8,249.164c0-45.579,36.023-82.895,81.093-84.992v39.525h-2.497
		c-19.034,0-34.521,15.486-34.521,34.521v21.88c0,19.035,15.486,34.521,34.521,34.521h2.497v39.52
		C44.023,332.043,8,294.734,8,249.164z M97.093,345.265V294.62h80.772C161.839,324.461,131.034,343.846,97.093,345.265z
		 M218.827,282.087c0,2.499-2.033,4.532-4.532,4.532h-49.281c6.01-11.521,9.17-24.332,9.17-37.457c0-13.144-3.16-25.958-9.17-37.466
		h49.28c2.499,0,4.532,2.033,4.532,4.532V282.087z M386.702,266.966l-143.675,10.65V220.71l143.675,10.65
		c9.271,0.687,16.532,8.507,16.532,17.803C403.234,258.459,395.973,266.279,386.702,266.966z"/>
</g>
</svg>